<svg xmlns="http://www.w3.org/2000/svg" viewBox="0 0 163 202" fill="none">
  <path d="M2.00316 64.8983L58.1069 27.0062C61.1839 24.928 65.2151 24.928 68.2922 27.0062L105.949 52.439L42.7619 95.1149V178.433L4.00631 152.258C1.50126 150.566 0 147.741 0 144.718V68.6684C0 67.157 0.750633 65.7442 2.00316 64.8983Z" fill="url(#a)"/>
  <path d="M161.014 137.102L104.911 174.994C101.834 177.072 97.8024 177.072 94.7253 174.994L57.069 149.561L120.256 106.885V23.5667L159.011 49.7419C161.516 51.4338 163.018 54.2593 163.018 57.2822V133.332C163.018 134.843 162.267 136.256 161.014 137.102Z" fill="url(#b)"/>
  <defs>
    <linearGradient id="a" x1="89.6941" y1="74.0845" x2="1.00344" y2="166.999" gradientUnits="userSpaceOnUse">
      <stop offset="0.113147" stop-color="#B251FF"/>
      <stop offset="1" stop-color="#8717E0"/>
    </linearGradient>
    <linearGradient id="b" x1="73.3235" y1="127.915" x2="162.014" y2="35.001" gradientUnits="userSpaceOnUse">
      <stop offset="0.113147" stop-color="#B251FF"/>
      <stop offset="1" stop-color="#8717E0"/>
    </linearGradient>
  </defs>
</svg>
